<!-- Generated by IcoMoon.io -->
<svg version="1.1" xmlns="http://www.w3.org/2000/svg" width="32" height="32" viewBox="0 0 32 32">
<path fill="#fff" style="fill: var(--color2, #fff)" d="M3.961 12.040c-2.189 0-3.961 1.771-3.961 3.959s1.77 3.96 3.961 3.96c2.185 0 3.959-1.769 3.959-3.96 0-2.188-1.774-3.959-3.959-3.959zM16.205 12.040c-2.184 0-3.961 1.77-3.961 3.958s1.775 3.96 3.961 3.96 3.963-1.769 3.963-3.96c-0.002-2.187-1.777-3.958-3.963-3.958zM28.042 12.040c-2.188 0-3.962 1.771-3.962 3.96 0 2.186 1.771 3.958 3.962 3.958 2.184 0 3.958-1.769 3.958-3.958s-1.774-3.96-3.958-3.96z"></path>
</svg>
